<svg width="24" height="24" viewBox="0 0 24 24" fill="none" xmlns="http://www.w3.org/2000/svg">
<path d="M12 2C10 2 8 4 8 6C8 8 10 10 12 10C14 10 16 8 16 6C16 4 14 2 12 2Z" fill="#4CAF50"/>
<path d="M12 10C7.58172 10 4 13.5817 4 18C4 22.4183 7.58172 22 12 22C16.4183 22 20 18.4183 20 14C20 10.5817 16.4183 10 12 10Z" fill="#FFC107"/>
<path d="M12 12L12 20" stroke="white" stroke-width="2" stroke-linecap="round" stroke-linejoin="round"/>
<path d="M8 16L16 16" stroke="white" stroke-width="2" stroke-linecap="round" stroke-linejoin="round"/>
</svg>